<svg id="Layer_185" data-name="Layer 185" xmlns="http://www.w3.org/2000/svg" width="81.22" height="54.15" viewBox="0 0 81.22 54.15">
  <defs>
    <style>
      .cls-1 {
        fill: #fff;
      }

      .cls-1, .cls-2, .cls-3 {
        fill-rule: evenodd;
      }

      .cls-2 {
        fill: navy;
      }

      .cls-3 {
        fill: red;
      }
    </style>
  </defs>
  <path id="Layer_119" data-name="Layer 119" class="cls-1" d="M2395.68,1898.97h-81.2v54.13h81.2v-54.13Z" transform="translate(-2314.47 -1898.97)"/>
  <g id="Ebene_1" data-name="Ebene 1">
    <path id="path3078" class="cls-2" d="M2388.92,1953.09h-30.01v-19.72c1.29,0.86,28.9,18.99,30.01,19.72h0Z" transform="translate(-2314.47 -1898.97)"/>
    <path id="path3084" class="cls-3" d="M2395.65,1898.97c0.01,2.05.01,0.53,0,2.26-11.58,7.7-22.95,15.34-34.48,22.98,11.51,0.02,22.97-.02,34.48,0,0,1.19.01,2.45,0.01,3.64-11.47.02-22.96-.02-34.42,0q17.19,11.13,34.41,22.29v2.95h-3.36c-12.02-8.02-23.17-15.65-35.29-23.53-0.09,8.28,0,14.62,0,23.53h-3.87c-0.02-7.83.02-15.69,0-23.52l-35.3,23.51-3.33.01C2324.17,1946.59,2375.73,1912.31,2395.65,1898.97Z" transform="translate(-2314.47 -1898.97)"/>
    <path id="path3076" class="cls-2" d="M2321.15,1953.09c0.23-.15,29.75-19.8,30.05-20,0.02,6.94,0,12.52,0,20-12.31.03-20.04-.01-30.05,0h0Z" transform="translate(-2314.47 -1898.97)"/>
    <path id="path3080" class="cls-2" d="M2367.26,1929.67c15.82,0,15.29-.03,28.39,0,0.04,6.07.03,10.98,0.01,17.51C2386.35,1941.45,2376.56,1935.4,2367.26,1929.67Z" transform="translate(-2314.47 -1898.97)"/>
    <path id="path3082" class="cls-2" d="M2395.66,1903.48c0,6.25-.01,12.67-0.01,18.91h-28.39c28.53-18.88.08-.07,28.39-18.91h0.01Z" transform="translate(-2314.47 -1898.97)"/>
    <path id="rect3086" class="cls-2" d="M2355.53,1898.97h-41.05v26.75h41.05v-26.75Z" transform="translate(-2314.47 -1898.97)"/>
    <path id="path3858" class="cls-3" d="M2355.52,1898.97h40.13c-1.61,1.08-4.15,2.77-5.76,3.84-11.7-.03-22.66-0.06-34.37,0v-3.84h0Z" transform="translate(-2314.47 -1898.97)"/>
    <path id="path3866" class="cls-3" d="M2355.52,1906.64c13.28-.01,15.31,0,28.63,0-1.6,1.07-4.15,2.76-5.76,3.84-11.7-.04-11.15-0.08-22.86-0.01-0.01-.14,0-3.35-0.01-3.83h0Z" transform="translate(-2314.47 -1898.97)"/>
    <path id="path3872" class="cls-3" d="M2361.25,1921.91c-0.36.25-4.98,3.32-5.71,3.81v-3.81c1.89,0,3.8.02,5.71,0h0Z" transform="translate(-2314.47 -1898.97)"/>
    <path id="path3874" class="cls-3" d="M2355.53,1914.18c13.28,0,4.02-.01,17.34-0.01-1.61,1.07-4.25,2.82-5.86,3.89-0.44.03-11.48,0.03-11.48,0.03C2355.55,1917.64,2355.54,1914.66,2355.53,1914.18Z" transform="translate(-2314.47 -1898.97)"/>
    <path id="path3880" class="cls-3" d="M2314.48,1930.15c0.52,0,21.12-.01,34.43-0.01-1.61,1.07-4.15,2.76-5.76,3.84-11.7-.04-28.34,0-28.67,0,0.01-.17,0-3.44,0-3.83h0Z" transform="translate(-2314.47 -1898.97)"/>
    <path id="path3884" class="cls-3" d="M2314.49,1937.78c0.51,0.03,18.95,0,22.97,0-1.61,1.08-4.15,2.76-5.76,3.84-0.37-.01-16.8,0-17.21,0-0.01-.39.01-3.36,0-3.84h0Z" transform="translate(-2314.47 -1898.97)"/>
    <path id="path3886" class="cls-3" d="M2314.5,1945.37c13.28-.01,11.24-0.02,11.59-0.02-0.28.2-4.26,2.82-5.86,3.9-0.44.02-5.75,0.02-5.75,0.02C2314.51,1948.82,2314.51,1945.85,2314.5,1945.37Z" transform="translate(-2314.47 -1898.97)"/>
    <path id="path3941" class="cls-1" d="M2317.79,1902.67l-1.22-.85-1.17.83,0.48-1.36-1.2-.79,1.52,0.01,0.43-1.32,0.46,1.36,1.46-.02-1.23.83Z" transform="translate(-2314.47 -1898.97)"/>
    <path id="path3943" class="cls-1" d="M2317.79,1925.07l-1.22-.85-1.17.83,0.48-1.35-1.2-.8,1.52,0.01,0.43-1.32,0.46,1.36,1.46-.02-1.23.83Z" transform="translate(-2314.47 -1898.97)"/>
    <path id="path3945" class="cls-1" d="M2317.79,1913.29l-1.22-.85-1.17.83,0.48-1.36-1.2-.79,1.52,0.01,0.43-1.32,0.46,1.36,1.46-.02-1.23.83Z" transform="translate(-2314.47 -1898.97)"/>
    <path id="path3947" class="cls-1" d="M2317.79,1907.9l-1.22-.84-1.17.83,0.48-1.36-1.2-.79h1.52l0.43-1.31,0.46,1.36,1.46-.02-1.23.83Z" transform="translate(-2314.47 -1898.97)"/>
    <path id="path3949" class="cls-1" d="M2317.79,1918.96l-1.22-.85-1.17.83,0.48-1.35-1.2-.8,1.52,0.01,0.43-1.32,0.46,1.36,1.46-.02-1.23.83Z" transform="translate(-2314.47 -1898.97)"/>
    <path id="path3951" class="cls-1" d="M2354.5,1902.67l-1.21-.85-1.17.83,0.47-1.36-1.19-.79,1.51,0.01,0.43-1.32,0.46,1.36,1.46-.02-1.23.83Z" transform="translate(-2314.47 -1898.97)"/>
    <path id="path3953" class="cls-1" d="M2354.5,1925.07l-1.21-.85-1.17.83,0.47-1.35-1.19-.8,1.51,0.01,0.43-1.32,0.46,1.36,1.46-.02-1.23.83Z" transform="translate(-2314.47 -1898.97)"/>
    <path id="path3955" class="cls-1" d="M2354.5,1913.29l-1.21-.85-1.17.83,0.47-1.36-1.19-.79,1.51,0.01,0.43-1.32,0.46,1.36,1.46-.02-1.23.83Z" transform="translate(-2314.47 -1898.97)"/>
    <path id="path3957" class="cls-1" d="M2354.5,1907.9l-1.21-.84-1.17.83,0.47-1.36-1.19-.79h1.51l0.43-1.31,0.46,1.36,1.46-.02-1.23.83Z" transform="translate(-2314.47 -1898.97)"/>
    <path id="path3959" class="cls-1" d="M2354.5,1918.96l-1.21-.85-1.17.83,0.47-1.35-1.19-.8,1.51,0.01,0.43-1.32,0.46,1.36,1.46-.02-1.23.83Z" transform="translate(-2314.47 -1898.97)"/>
    <path id="path3961" class="cls-1" d="M2332.45,1902.67l-1.22-.85-1.17.83,0.47-1.36-1.19-.79,1.51,0.01,0.43-1.32,0.46,1.36,1.46-.02-1.23.83Z" transform="translate(-2314.47 -1898.97)"/>
    <path id="path3963" class="cls-1" d="M2332.45,1925.07l-1.22-.85-1.17.83,0.47-1.35-1.19-.8,1.51,0.01,0.43-1.32,0.46,1.36,1.46-.02-1.23.83Z" transform="translate(-2314.47 -1898.97)"/>
    <path id="path3965" class="cls-1" d="M2332.45,1913.29l-1.22-.85-1.17.83,0.47-1.36-1.19-.79,1.51,0.01,0.43-1.32,0.46,1.36,1.46-.02-1.23.83Z" transform="translate(-2314.47 -1898.97)"/>
    <path id="path3967" class="cls-1" d="M2332.45,1907.9l-1.22-.84-1.17.83,0.47-1.36-1.19-.79h1.51l0.43-1.31,0.46,1.36,1.46-.02-1.23.83Z" transform="translate(-2314.47 -1898.97)"/>
    <path id="path3969" class="cls-1" d="M2332.45,1918.96l-1.22-.85-1.17.83,0.47-1.35-1.19-.8,1.51,0.01,0.43-1.32,0.46,1.36,1.46-.02-1.23.83Z" transform="translate(-2314.47 -1898.97)"/>
    <path id="path3971" class="cls-1" d="M2340,1902.67l-1.22-.85-1.16.83,0.47-1.36-1.19-.79,1.51,0.01,0.43-1.32,0.46,1.36,1.46-.02-1.23.83Z" transform="translate(-2314.47 -1898.97)"/>
    <path id="path3973" class="cls-1" d="M2340,1925.07l-1.22-.85-1.16.83,0.47-1.35-1.19-.8,1.51,0.01,0.43-1.32,0.46,1.36,1.46-.02-1.23.83Z" transform="translate(-2314.47 -1898.97)"/>
    <path id="path3975" class="cls-1" d="M2340,1913.29l-1.22-.85-1.16.83,0.47-1.36-1.19-.79,1.51,0.01,0.43-1.32,0.46,1.36,1.46-.02-1.23.83Z" transform="translate(-2314.47 -1898.97)"/>
    <path id="path3977" class="cls-1" d="M2340,1907.9l-1.22-.84-1.16.83,0.47-1.36-1.19-.79h1.51l0.43-1.31,0.46,1.36,1.46-.02-1.23.83Z" transform="translate(-2314.47 -1898.97)"/>
    <path id="path3979" class="cls-1" d="M2340,1918.96l-1.22-.85-1.16.83,0.47-1.35-1.19-.8,1.51,0.01,0.43-1.32,0.46,1.36,1.46-.02-1.23.83Z" transform="translate(-2314.47 -1898.97)"/>
    <path id="path3981" class="cls-1" d="M2347.72,1902.67l-1.22-.85-1.17.83,0.47-1.36-1.19-.79,1.51,0.01,0.43-1.32,0.46,1.36,1.46-.02-1.22.83Z" transform="translate(-2314.47 -1898.97)"/>
    <path id="path3983" class="cls-1" d="M2347.72,1925.07l-1.22-.85-1.17.83,0.47-1.35-1.19-.8,1.51,0.01,0.43-1.32,0.46,1.36,1.46-.02-1.22.83Z" transform="translate(-2314.47 -1898.97)"/>
    <path id="path3985" class="cls-1" d="M2347.72,1913.29l-1.22-.85-1.17.83,0.47-1.36-1.19-.79,1.51,0.01,0.43-1.32,0.46,1.36,1.46-.02-1.22.83Z" transform="translate(-2314.47 -1898.97)"/>
    <path id="path3987" class="cls-1" d="M2347.72,1907.9l-1.22-.84-1.17.83,0.47-1.36-1.19-.79h1.51l0.43-1.31,0.46,1.36,1.46-.02-1.22.83Z" transform="translate(-2314.47 -1898.97)"/>
    <path id="path3989" class="cls-1" d="M2347.72,1918.96l-1.22-.85-1.17.83,0.47-1.35-1.19-.8,1.51,0.01,0.43-1.32,0.46,1.36,1.46-.02-1.22.83Z" transform="translate(-2314.47 -1898.97)"/>
    <path id="path4001" class="cls-1" d="M2325.2,1902.67l-1.22-.85-1.17.83,0.47-1.36-1.19-.79,1.51,0.01,0.43-1.32,0.46,1.36,1.46-.02-1.23.83Z" transform="translate(-2314.47 -1898.97)"/>
    <path id="path4003" class="cls-1" d="M2325.2,1925.07l-1.22-.85-1.17.83,0.47-1.35-1.19-.8,1.51,0.01,0.43-1.32,0.46,1.36,1.46-.02-1.23.83Z" transform="translate(-2314.47 -1898.97)"/>
    <path id="path4005" class="cls-1" d="M2325.2,1913.29l-1.22-.85-1.17.83,0.47-1.36-1.19-.79,1.51,0.01,0.43-1.32,0.46,1.36,1.46-.02-1.23.83Z" transform="translate(-2314.47 -1898.97)"/>
    <path id="path4007" class="cls-1" d="M2325.2,1907.9l-1.22-.84-1.17.83,0.47-1.36-1.19-.79h1.51l0.43-1.31,0.46,1.36,1.46-.02-1.23.83Z" transform="translate(-2314.47 -1898.97)"/>
    <path id="path4009" class="cls-1" d="M2325.2,1918.96l-1.22-.85-1.17.83,0.47-1.35-1.19-.8,1.51,0.01,0.43-1.32,0.46,1.36,1.46-.02-1.23.83Z" transform="translate(-2314.47 -1898.97)"/>
    <path id="path4013" class="cls-1" d="M2321.49,1905.72l-1.22-.84-1.17.82,0.48-1.35-1.2-.79h1.52l0.43-1.31,0.46,1.36,1.46-.03-1.23.84Z" transform="translate(-2314.47 -1898.97)"/>
    <path id="path4015" class="cls-1" d="M2321.49,1916.34l-1.22-.84-1.17.82,0.48-1.35-1.2-.8,1.52,0.01,0.43-1.32,0.46,1.36,1.46-.02-1.23.84Z" transform="translate(-2314.47 -1898.97)"/>
    <path id="path4017" class="cls-1" d="M2321.49,1910.96l-1.22-.85-1.17.83,0.48-1.35-1.2-.8,1.52,0.01,0.43-1.32,0.46,1.36,1.46-.02-1.23.83Z" transform="translate(-2314.47 -1898.97)"/>
    <path id="path4019" class="cls-1" d="M2321.49,1922.01l-1.22-.84-1.17.83,0.48-1.36-1.2-.79h1.52l0.43-1.31,0.46,1.36,1.46-.02-1.23.83Z" transform="translate(-2314.47 -1898.97)"/>
    <path id="path4021" class="cls-1" d="M2336.15,1905.72l-1.22-.84-1.17.82,0.47-1.35-1.19-.79h1.51l0.43-1.31,0.46,1.36,1.46-.03-1.22.84Z" transform="translate(-2314.47 -1898.97)"/>
    <path id="path4023" class="cls-1" d="M2336.15,1916.34l-1.22-.84-1.17.82,0.47-1.35-1.19-.8,1.51,0.01,0.43-1.32,0.46,1.36,1.46-.02-1.22.84Z" transform="translate(-2314.47 -1898.97)"/>
    <path id="path4025" class="cls-1" d="M2336.15,1910.96l-1.22-.85-1.17.83,0.47-1.35-1.19-.8,1.51,0.01,0.43-1.32,0.46,1.36,1.46-.02-1.22.83Z" transform="translate(-2314.47 -1898.97)"/>
    <path id="path4027" class="cls-1" d="M2336.15,1922.01l-1.22-.84-1.17.83,0.47-1.36-1.19-.79h1.51l0.43-1.31,0.46,1.36,1.46-.02-1.22.83Z" transform="translate(-2314.47 -1898.97)"/>
    <path id="path4029" class="cls-1" d="M2343.71,1905.72l-1.22-.84-1.17.82,0.47-1.35-1.19-.79h1.51l0.43-1.31,0.46,1.36,1.46-.03-1.23.84Z" transform="translate(-2314.47 -1898.97)"/>
    <path id="path4031" class="cls-1" d="M2343.71,1916.34l-1.22-.84-1.17.82,0.47-1.35-1.19-.8,1.51,0.01,0.43-1.32,0.46,1.36,1.46-.02-1.23.84Z" transform="translate(-2314.47 -1898.97)"/>
    <path id="path4033" class="cls-1" d="M2343.71,1910.96l-1.22-.85-1.17.83,0.47-1.35-1.19-.8,1.51,0.01,0.43-1.32,0.46,1.36,1.46-.02-1.23.83Z" transform="translate(-2314.47 -1898.97)"/>
    <path id="path4035" class="cls-1" d="M2343.71,1922.01l-1.22-.84-1.17.83,0.47-1.36-1.19-.79h1.51l0.43-1.31,0.46,1.36,1.46-.02-1.23.83Z" transform="translate(-2314.47 -1898.97)"/>
    <path id="path4037" class="cls-1" d="M2351.42,1905.72l-1.22-.84-1.17.82,0.48-1.35-1.2-.79h1.51l0.43-1.31,0.47,1.36,1.46-.03-1.23.84Z" transform="translate(-2314.47 -1898.97)"/>
    <path id="path4039" class="cls-1" d="M2351.42,1916.34l-1.22-.84-1.17.82,0.48-1.35-1.2-.8,1.51,0.01,0.43-1.32,0.47,1.36,1.46-.02-1.23.84Z" transform="translate(-2314.47 -1898.97)"/>
    <path id="path4041" class="cls-1" d="M2351.42,1910.96l-1.22-.85-1.17.83,0.48-1.35-1.2-.8,1.51,0.01,0.43-1.32,0.47,1.36,1.46-.02-1.23.83Z" transform="translate(-2314.47 -1898.97)"/>
    <path id="path4043" class="cls-1" d="M2351.42,1922.01l-1.22-.84-1.17.83,0.48-1.36-1.2-.79h1.51l0.43-1.31,0.47,1.36,1.46-.02-1.23.83Z" transform="translate(-2314.47 -1898.97)"/>
    <path id="path4045" class="cls-1" d="M2328.9,1905.72l-1.22-.84-1.17.82,0.47-1.35-1.19-.79h1.51l0.43-1.31,0.46,1.36,1.46-.03-1.22.84Z" transform="translate(-2314.47 -1898.97)"/>
    <path id="path4047" class="cls-1" d="M2328.9,1916.34l-1.22-.84-1.17.82,0.47-1.35-1.19-.8,1.51,0.01,0.43-1.32,0.46,1.36,1.46-.02-1.22.84Z" transform="translate(-2314.47 -1898.97)"/>
    <path id="path4049" class="cls-1" d="M2328.9,1910.96l-1.22-.85-1.17.83,0.47-1.35-1.19-.8,1.51,0.01,0.43-1.32,0.46,1.36,1.46-.02-1.22.83Z" transform="translate(-2314.47 -1898.97)"/>
    <path id="path4051" class="cls-1" d="M2328.9,1922.01l-1.22-.84-1.17.83,0.47-1.36-1.19-.79h1.51l0.43-1.31,0.46,1.36,1.46-.02-1.22.83Z" transform="translate(-2314.47 -1898.97)"/>
  </g>
</svg>
