<svg id="Layer_86" data-name="Layer 86" xmlns="http://www.w3.org/2000/svg" width="238.875" height="119.094" viewBox="0 0 238.875 119.094">
  <defs>
    <style>
    .cls-1 {
      fill: rgb(177,1,2);
    }

    .cls-1,
    .cls-2 {
      fill-rule: evenodd;
    }

    .cls-2 {
      fill: none;
      stroke: rgb(177,1,2);
      stroke-linecap: square;
      stroke-miterlimit: 1.5;
      stroke-width: 3.553px;
    }
  </style>
  </defs>
  <path id="Layer_66" data-name="Layer 66" class="cls-1" d="M179.1,193.831c7.792,0,13.575-3.531,16.924-8.949l-7.062-4.444a11.532,11.532,0,0,1-9.862,6.088c-7.123,0-11.75-5.662-11.75-13.576,0-7.975,4.627-13.636,11.75-13.636a11.623,11.623,0,0,1,9.862,6.148l7.062-4.5c-3.349-5.418-9.132-8.949-16.924-8.949-12.663,0-20.211,9.375-20.211,20.942C158.889,184.456,166.437,193.831,179.1,193.831Z" transform="translate(-158.875 -74.75)" />
  <path id="Layer_67" data-name="Layer 67" class="cls-1" d="M201.685,193.344h7.793V152.5h-7.793v40.849Z" transform="translate(-158.875 -74.75)" />
  <path id="Layer_68" data-name="Layer 68" class="cls-1" d="M243.508,152.5l-10.653,29.648L222.2,152.5h-8.036l14.672,40.849h8.036L251.544,152.5h-8.036Z" transform="translate(-158.875 -74.75)" />
  <path id="Layer_69" data-name="Layer 69" class="cls-1" d="M256.171,193.344h7.792V152.5h-7.792v40.849Z" transform="translate(-158.875 -74.75)" />
  <path id="Layer_70" data-name="Layer 70" class="cls-1" d="M284.235,193.831c7.488,0,13.759-4.809,13.759-11.506,0-11.627-19.968-12.662-19.968-18.872,0-2.5,2.374-4.139,6.027-4.139,4.748,0,8.949,4.626,9.436,5.113l5.3-5.235c-0.609-.67-7.062-7.184-14.672-7.184-7.487.061-13.7,4.809-13.7,11.567,0,11.567,19.907,12.662,19.907,18.811,0,2.5-2.374,4.14-6.027,4.14-4.809,0-9.01-4.688-9.375-5.114l-5.3,5.236C270.173,187.317,276.686,193.831,284.235,193.831Z" transform="translate(-158.875 -74.75)" />
  <path id="Layer_71" data-name="Layer 71" class="cls-1" d="M350.592,193.344L342.617,152.5h-6.879l-8.949,24.29L317.9,152.5h-6.88l-7.975,40.849h7.793l5.053-26.6,8.766,26.6h4.2l8.828-26.6,5.113,26.6h7.793Z" transform="translate(-158.875 -74.75)" />
  <path id="Layer_72" data-name="Layer 72" class="cls-1" d="M373.177,193.831c12.663,0,20.212-9.375,20.212-20.881,0-11.567-7.549-20.942-20.212-20.942-12.6,0-20.15,9.375-20.15,20.942C353.027,184.456,360.576,193.831,373.177,193.831Zm0-7.3c-7.062,0-11.688-5.662-11.688-13.576,0-7.975,4.626-13.636,11.688-13.636,7.184,0,11.81,5.661,11.81,13.636C384.987,180.864,380.361,186.526,373.177,186.526Z" transform="translate(-158.875 -74.75)" />
  <g id="Layer_84" data-name="Layer 84">
    <path id="Layer_75" data-name="Layer 75" class="cls-1" d="M171.843,128.241v-1.384h-7.8v14.089h1.383v-6.332h4.424V133.23h-4.424v-4.989h6.416Z" transform="translate(-158.875 -74.75)" />
    <path id="Layer_76" data-name="Layer 76" class="cls-1" d="M180.061,141.113a5.3,5.3,0,0,0,5.577-5.514v-8.742h-1.384V135.6a4.193,4.193,0,0,1-8.386,0v-8.742h-1.384V135.6A5.308,5.308,0,0,0,180.061,141.113Z" transform="translate(-158.875 -74.75)" />
    <path id="Layer_77" data-name="Layer 77" class="cls-1" d="M197.693,126.857v11.992l-7.883-11.992h-1.405v14.089h1.384V128.974l7.862,11.972h1.426V126.857h-1.384Z" transform="translate(-158.875 -74.75)" />
    <path id="Layer_78" data-name="Layer 78" class="cls-1" d="M201.991,140.946h3.187c4.759,0,7.589-3.166,7.589-7.045,0-3.9-2.83-7.044-7.589-7.044h-3.187v14.089Zm1.384-1.321V128.178h1.8c3.774,0,6.08,2.515,6.08,5.723s-2.306,5.724-6.08,5.724h-1.8Z" transform="translate(-158.875 -74.75)" />
    <path id="Layer_79" data-name="Layer 79" class="cls-1" d="M224.823,140.946h1.425l-5.87-14.089h-1.321l-5.87,14.089h1.446l1.8-4.4h6.583ZM217,135.159l2.726-6.688,2.725,6.688H217Z" transform="translate(-158.875 -74.75)" />
    <path id="Layer_80" data-name="Layer 80" class="cls-1" d="M233.293,141.113a6.4,6.4,0,0,0,5.933-3.5l-1.3-.776a5.037,5.037,0,0,1-4.633,2.977c-3.271,0-5.263-2.6-5.263-5.891,0-3.312,1.992-5.891,5.263-5.891a5.041,5.041,0,0,1,4.633,2.956l1.3-.755a6.378,6.378,0,0,0-5.933-3.522c-4.256,0-6.793,3.229-6.793,7.212C226.5,137.885,229.037,141.113,233.293,141.113Z" transform="translate(-158.875 -74.75)" />
    <path id="Layer_81" data-name="Layer 81" class="cls-1" d="M241.742,140.946h1.383V126.857h-1.383v14.089Z" transform="translate(-158.875 -74.75)" />
    <path id="Layer_82" data-name="Layer 82" class="cls-1" d="M252.119,141.113c4.256,0,6.751-3.228,6.751-7.191,0-3.983-2.5-7.212-6.751-7.212s-6.771,3.229-6.771,7.212C245.348,137.885,247.863,141.113,252.119,141.113Zm0-1.3c-3.249,0-5.283-2.6-5.283-5.891,0-3.312,2.034-5.891,5.283-5.891s5.3,2.579,5.3,5.891C257.424,137.214,255.369,139.813,252.119,139.813Z" transform="translate(-158.875 -74.75)" />
    <path id="Layer_83" data-name="Layer 83" class="cls-1" d="M270.3,126.857v11.992l-7.883-11.992h-1.4v14.089h1.384V128.974l7.862,11.972h1.425V126.857H270.3Z" transform="translate(-158.875 -74.75)" />
  </g>
  <path id="building-svg" data-name="Layer 85" stroke="#fff" stroke-width="3" pathLength="1" class="cls-2" d="M254.94,121.856l6.547-4.231,0.378-9.858,13-.358,0.055-23.087,6.206-.17,0.241,10.515,5.233-.031,0.369-10.508,6.619-.091,0.045,23.808,12.158,0.217L306.2,92.709l12.758,6.951V118.6h6.43V87.817l5.826-.047,4.714-11.031,7.085-.194,9.053,13.177,0.426,39.2,11.476-.249-0.2-10.057-0.053-2.764,11.674-6.874,10.775,6.056,0.786,29.844,9.021-.045" transform="translate(-158.875 -74.75)" />
</svg>